<?xml version="1.0" encoding="UTF-8" standalone="no"?>
<!-- Created with Inkscape (http://www.inkscape.org/) -->

<svg
   xmlns:dc="http://purl.org/dc/elements/1.1/"
   xmlns:cc="http://creativecommons.org/ns#"
   xmlns:rdf="http://www.w3.org/1999/02/22-rdf-syntax-ns#"
   xmlns:svg="http://www.w3.org/2000/svg"
   xmlns="http://www.w3.org/2000/svg"
   xmlns:sodipodi="http://sodipodi.sourceforge.net/DTD/sodipodi-0.dtd"
   xmlns:inkscape="http://www.inkscape.org/namespaces/inkscape"
   width="49mm"
   height="109mm"
   viewBox="0 0 49 109"
   version="1.1"
   id="svg8"
   inkscape:version="0.92.5 (2060ec1f9f, 2020-04-08)"
   sodipodi:docname="cleff.svg">
  <defs
     id="defs2" />
  <sodipodi:namedview
     id="base"
     pagecolor="#ffffff"
     bordercolor="#666666"
     borderopacity="1.0"
     inkscape:pageopacity="0.0"
     inkscape:pageshadow="2"
     inkscape:zoom="0.98994949"
     inkscape:cx="419.41127"
     inkscape:cy="352.28359"
     inkscape:document-units="mm"
     inkscape:current-layer="g18"
     showgrid="false"
     inkscape:window-width="1920"
     inkscape:window-height="1017"
     inkscape:window-x="-8"
     inkscape:window-y="-8"
     inkscape:window-maximized="1">
    <inkscape:grid
       type="xygrid"
       id="grid89" />
  </sodipodi:namedview>
  <metadata
     id="metadata5">
    <rdf:RDF>
      <cc:Work
         rdf:about="">
        <dc:format>image/svg+xml</dc:format>
        <dc:type
           rdf:resource="http://purl.org/dc/dcmitype/StillImage" />
        <dc:title></dc:title>
      </cc:Work>
    </rdf:RDF>
  </metadata>
  <g
     inkscape:label="Layer 1"
     inkscape:groupmode="layer"
     id="layer1"
     transform="translate(0,-188)">
    <g
       id="g39"
       transform="matrix(0.28221901,0,0,0.28221901,-7.793823,32.53767)">
      <path
         id="path14"
         d="m 95.67994,820.13692 c -17.015,-0.98893 -34.387,-11.661 -44.776,-23.91 -12.046,-14.202 -17.012,-33.51 -15.74,-49.367 3.737,-46.591 54.404,-74.128 73.159,-94.48 12.554,-13.622 15.186,-20.263 17.99,-27.269 5.4288,-13.562 6.3033,-29.451 -4.4595,-30.637 -10.276,-1.1326 -18.73,15.027 -22.506,26.072 -3.3955,9.9336 -5.6524,19.9 -3.6095,34.871 0.91802,6.7259 26.187,194.47 26.613,197.38 4.2557,29.083 -12.376,41.117 -29.355,43.258 -36.664,4.6223 -48.428,-32.637 -31.996,-46.787 12.651,-10.895 31.056,-1.5416 30.061,16.37 -0.88048,15.865 -16.437,16.332 -20.411,15.97 6.1018,10.943 52.103,16.661 45.039,-32.781 -0.99252,-6.9477 -24.343,-183.38 -24.915,-187.33 -4.2837,-29.556 -4.9364,-52.951 10.463,-80.253 5.6851,-10.078 14.67,-16.585 19.08,-15.733 0.96927,0.18724 1.935,0.54307 2.7016,1.3341 11.813,12.171 15.436,39.162 14.142,54.667 -1.3252,15.876 -2.0637,32.31 -17.849,51.476 -6.1089,7.4168 -24.751,23.756 -35.439,33.143 -15.018,13.189 -25.911,24.708 -31.804,38.605 -6.6234,15.618 -7.7447,35.279 7.2153,52.723 8.6055,9.8561 22.884,16.85 34.9,16.999 33.412,0.41487 43.169,-16.055 43.481,-34.707 0.51327,-30.712 -36.564,-42.324 -51.808,-21.207 -8.8386,12.245 -4.9537,25.133 0.9824,31.264 2.0375,2.1043 4.3135,3.7072 6.4666,4.6008 0.78029,0.3237 2.6158,1.1773 2.0948,2.4268 -0.43339,1.0396 -1.2751,1.0981 -2.0417,1.0063 -9.6129,-1.1529 -20.257,-10.341 -22.875,-26.146 -3.8139,-23.036 16.514,-50.361 45.531,-45.892 18.997,2.9257 36.635,19.272 35.088,49.71 -1.3263,26.087 -22.953,46.507 -55.424,44.62 z"
         inkscape:connector-curvature="0" />
      <g
         id="g18"
         transform="matrix(-1.3490705,0,0,-1.3490705,848.26182,1450.9973)"
         style="stroke-width:2.29409814">
        <path
           id="path16"
           d="m 426.48791,512.56156 c -8.12292,-7.29795 -3.679,-19.18579 9.72983,-26.02539 4.47286,-2.28186 7.77201,-3.2695 13.67311,-3.09491 3.57927,0.0917 5.90986,2.15495 5.90986,2.15495 0,-26.24636 -0.0991,-75.99887 -0.0991,-100.52405 1.45412,0.009 4.17017,-0.009 6.20635,-0.009 l 0.0685,35.53543 c 0,0 -0.12735,52.87358 -0.12735,72.91996 0,3.45207 -3.12732,9.30448 -4.8889,11.40869 -8.03352,9.59595 -23.45382,13.94074 -30.47223,7.63463 z"
           inkscape:connector-curvature="0"
           style="stroke-width:2.29409814"
           sodipodi:nodetypes="cccccccsccc" />
      </g>
      <rect
         style="opacity:1;vector-effect:none;fill:#000000;fill-opacity:1;stroke:none;stroke-width:0.35433474;stroke-linecap:round;stroke-linejoin:miter;stroke-miterlimit:4;stroke-dasharray:none;stroke-dashoffset:0;stroke-opacity:0.99497483"
         id="rect41"
         width="637.35034"
         height="6.8659678"
         x="23.161837"
         y="647.74451" />
      <rect
         style="opacity:1;vector-effect:none;fill:#000000;fill-opacity:1;stroke:none;stroke-width:0.35433474;stroke-linecap:round;stroke-linejoin:miter;stroke-miterlimit:4;stroke-dasharray:none;stroke-dashoffset:0;stroke-opacity:0.99497483"
         id="rect41-1"
         width="637.35028"
         height="6.8659678"
         x="23.161837"
         y="689.9325" />
      <rect
         style="opacity:1;vector-effect:none;fill:#000000;fill-opacity:1;stroke:none;stroke-width:0.35433474;stroke-linecap:round;stroke-linejoin:miter;stroke-miterlimit:4;stroke-dasharray:none;stroke-dashoffset:0;stroke-opacity:0.99497483"
         id="rect41-2"
         width="637.35028"
         height="6.8659678"
         x="23.161837"
         y="732.12048" />
      <rect
         style="opacity:1;vector-effect:none;fill:#000000;fill-opacity:1;stroke:none;stroke-width:0.35433474;stroke-linecap:round;stroke-linejoin:miter;stroke-miterlimit:4;stroke-dasharray:none;stroke-dashoffset:0;stroke-opacity:0.99497483"
         id="rect41-7"
         width="637.35028"
         height="6.8659678"
         x="23.161837"
         y="774.30847" />
      <rect
         style="opacity:1;vector-effect:none;fill:#000000;fill-opacity:1;stroke:none;stroke-width:0.35433474;stroke-linecap:round;stroke-linejoin:miter;stroke-miterlimit:4;stroke-dasharray:none;stroke-dashoffset:0;stroke-opacity:0.99497483"
         id="rect41-1-4"
         width="637.35022"
         height="6.8659678"
         x="23.161837"
         y="816.49646" />
      <rect
         style="opacity:1;vector-effect:none;fill:#000000;fill-opacity:1;stroke:none;stroke-width:0.35433474;stroke-linecap:round;stroke-linejoin:miter;stroke-miterlimit:4;stroke-dasharray:none;stroke-dashoffset:0;stroke-opacity:0.99497483"
         id="rect41-4"
         width="170.46509"
         height="6.8659678"
         x="650.60577"
         y="-167.42134"
         transform="rotate(90)" />
      <rect
         style="opacity:1;vector-effect:none;fill:#000000;fill-opacity:1;stroke:none;stroke-width:0.35433474;stroke-linecap:round;stroke-linejoin:miter;stroke-miterlimit:4;stroke-dasharray:none;stroke-dashoffset:0;stroke-opacity:0.99497483"
         id="rect41-4-0"
         width="170.46507"
         height="6.8659678"
         x="650.60577"
         y="-195.8322"
         transform="rotate(90)" />
    </g>
  </g>
</svg>
